# xmcd
#
# Track frame offsets:
#	182
#	10932
#	28645
#	39300
#	54555
#	70252
#	80862
#	101332
#	113910
#	120047
#	134545
#	148675
#	161017
#	171532
#	185097
#	195167
#
# Disc length: 3081
#
# Revision: 3
# Processed by: cddbd v1.5.1PL0 Copyright (c) Steve Scherf et al.
# Submitted via: OrangeCD 5.1
# Normalized: r2:DSETVAR1
#
DISCID=da0c0710
DTITLE=Various Artist - Country All Stars - Live [CD 2)
DYEAR=1900
DGENRE=Country
TTITLE0=Faron Young - Hello Walls
TTITLE1=Tanya Tucker - Delta Down
TTITLE2=George Jones - No Show Jones
TTITLE3=JeannieC.Riley - Harper Valley P.T.A.
TTITLE4=Bellamy Brother - Rednick Girls
TTITLE5=Stella Parton - Standard Lie
TTITLE6=Tanya Tucker - Texas When I Die
TTITLE7=Dottie West - Comes My Baby
TTITLE8=Tammy Wynette - Welcome To My World
TTITLE9=Hoyt Axton - Evangeline
TTITLE10=Freddy Fenden - Jambalaya
TTITLE11=Lynn Anderson - I've Never Loved Anyone More
TTITLE12=Bellamy Brother - Sugar Daddy
TTITLE13=Tammy Wynette - Stand By Your Man
TTITLE14=Nitty Gritty Dirt Band - High Horse
TTITLE15=Boxcar Willie - Medley
EXTD=ID3G: 2
EXTT0=
EXTT1=
EXTT2=
EXTT3=
EXTT4=
EXTT5=
EXTT6=
EXTT7=
EXTT8=
EXTT9=
EXTT10=
EXTT11=
EXTT12=
EXTT13=
EXTT14=
EXTT15=
PLAYORDER=
